<svg width="203" height="49" viewBox="0 0 203 49" fill="none" xmlns="http://www.w3.org/2000/svg">
<path d="M64.3335 13.4597C64.7307 13.0801 64.9679 12.5618 64.9969 12.0118C65.0123 11.7201 64.9685 11.4282 64.8683 11.154C64.768 10.8798 64.6134 10.6289 64.4136 10.4166C64.2139 10.2044 63.9733 10.0352 63.7063 9.91956C63.4393 9.80393 63.1517 9.74426 62.861 9.74426C62.5703 9.74426 62.2827 9.80393 62.0158 9.91956C61.7488 10.0352 61.5082 10.2044 61.3084 10.4166C61.1087 10.6289 60.954 10.8798 60.8538 11.154C60.7536 11.4282 60.7098 11.7201 60.7252 12.0118C60.7541 12.5618 60.9913 13.0801 61.3885 13.4597C61.7858 13.8394 62.3128 14.0513 62.861 14.0513C63.4093 14.0513 63.9363 13.8394 64.3335 13.4597ZM64.3712 34.0123V18.9016C64.3712 18.4999 64.2128 18.1142 63.9303 17.8295C63.6478 17.5447 63.2641 17.3844 62.8637 17.3844C62.4633 17.3844 62.0796 17.5447 61.7971 17.8295C61.5146 18.1142 61.3562 18.4999 61.3562 18.9016V34.0123C61.3562 34.4141 61.5146 34.7998 61.7971 35.0845C62.0796 35.3692 62.4633 35.5295 62.8637 35.5295C63.2641 35.5295 63.6478 35.3692 63.9303 35.0845C64.2128 34.7998 64.3712 34.4141 64.3712 34.0123Z" fill="#26C238" stroke="#26C238" stroke-width="0.5"/>
<path d="M79.7201 34.7877C80.6271 34.4014 81.4638 33.8687 82.198 33.2118L84.9732 33.9963H85.2232V33.9958V11.3679C85.2484 11.1648 85.2281 10.9586 85.1638 10.7642C85.0976 10.5642 84.9864 10.3821 84.8389 10.2321C84.6913 10.0821 84.5112 9.96828 84.3126 9.89963C84.1249 9.83475 83.9256 9.8119 83.7284 9.83253C83.5297 9.80849 83.328 9.8289 83.1379 9.89245C82.9367 9.95967 82.7541 10.0732 82.6046 10.224C82.455 10.3747 82.3426 10.5584 82.2761 10.7604C82.2116 10.9563 82.1921 11.1644 82.2189 11.3688V19.6958C81.4805 19.0339 80.638 18.4978 79.7245 18.1104C78.6288 17.6459 77.4528 17.4043 76.264 17.3997C75.0753 17.3951 73.8974 17.6275 72.7983 18.0836C71.6999 18.5394 70.702 19.2095 69.8618 20.0551C69.0063 20.8826 68.3294 21.8788 67.873 22.9813C67.4167 24.0834 67.1907 25.2683 67.2087 26.4622C67.1889 27.6572 67.4142 28.8435 67.8705 29.9468C68.3271 31.0507 69.0052 32.0478 69.8623 32.8755C70.7052 33.7161 71.7045 34.3811 72.803 34.8323C73.9021 35.2838 75.0789 35.5122 76.2659 35.5046C77.453 35.4969 78.6268 35.2533 79.7201 34.7877ZM76.2127 32.5218C75.0236 32.5249 73.8603 32.1723 72.8698 31.5086C71.8794 30.8449 71.1063 29.8997 70.6488 28.7926C70.1912 27.6854 70.0699 26.4662 70.3003 25.2893C70.5306 24.1125 71.1022 23.0313 71.9424 22.1825C72.7825 21.3336 73.8534 20.7553 75.0195 20.5204C76.1855 20.2855 77.3945 20.4045 78.4935 20.8624C79.5925 21.3204 80.5323 22.0967 81.1937 23.0936C81.855 24.0903 82.2082 25.2626 82.2083 26.462C82.2056 28.0663 81.573 29.6039 80.4494 30.7392C79.3259 31.8743 77.8027 32.5149 76.2127 32.5218Z" fill="#26C238" stroke="#26C238" stroke-width="0.5"/>
<path d="M104.652 28.8036C103.898 28.8036 103.32 29.8731 102.933 30.4345C102.275 31.2344 101.425 31.8511 100.464 32.2255C99.5021 32.6 98.4615 32.7197 97.441 32.5733C95.9322 32.3846 94.5446 31.6445 93.5413 30.4933L97.441 28.2155L105.331 23.6171C105.52 23.5254 105.678 23.3808 105.787 23.2006C105.896 23.0204 105.952 22.8122 105.946 22.6011C105.946 21.7028 105.31 20.7511 104.052 19.7512C102.409 18.3678 100.355 17.5757 98.2157 17.5001C97.957 17.4989 97.6984 17.5114 97.441 17.5375C95.2678 17.7331 93.245 18.7386 91.7683 20.3574C90.2915 21.9761 89.467 24.0917 89.4558 26.2906C89.436 27.4528 89.6549 28.6065 90.0986 29.6794C90.5424 30.7523 91.2014 31.7212 92.0344 32.5252C93.4794 33.9923 95.3967 34.8911 97.441 35.0597C99.2466 35.2085 101.055 34.8061 102.63 33.9047C103.776 33.247 105.962 31.5734 105.962 30.0548C105.948 29.7154 105.804 29.3947 105.559 29.1611C105.314 28.9274 104.989 28.7992 104.652 28.8036ZM91.9708 26.2906C91.9771 24.7573 92.535 23.2783 93.5409 22.128C94.5468 20.9776 95.9325 20.2338 97.441 20.0346C97.6983 20.0049 97.9568 19.9889 98.2157 19.9864C99.1042 19.9719 99.9847 20.1562 100.794 20.526C101.603 20.8959 102.321 21.4421 102.895 22.1252L97.441 25.3067L92.2732 28.3064C92.0705 27.654 91.9685 26.9741 91.9708 26.2906Z" fill="white"/>
<path d="M123.356 33.8601C123.367 34.0324 123.343 34.2051 123.285 34.3677C123.228 34.5302 123.137 34.679 123.02 34.805C122.903 34.931 122.762 35.0314 122.604 35.1C122.447 35.1687 122.278 35.2041 122.106 35.2041C121.935 35.2041 121.766 35.1687 121.609 35.1C121.451 35.0314 121.31 34.931 121.193 34.805C121.076 34.679 120.985 34.5302 120.928 34.3677C120.87 34.2051 120.846 34.0324 120.857 33.8601V23.7917C120.876 23.2829 120.793 22.7756 120.613 22.2999C120.433 21.8242 120.159 21.3901 119.809 21.0233C119.458 20.6566 119.038 20.3649 118.573 20.1657C118.108 19.9665 117.608 19.8638 117.103 19.8638C116.598 19.8638 116.098 19.9665 115.633 20.1657C115.168 20.3649 114.748 20.6566 114.397 21.0233C114.047 21.3901 113.773 21.8242 113.593 22.2999C113.413 22.7756 113.33 23.2829 113.349 23.7917V33.8601C113.375 34.0317 113.362 34.207 113.309 34.3722C113.256 34.5374 113.166 34.688 113.046 34.812C112.925 34.936 112.778 35.0301 112.615 35.0866C112.452 35.1432 112.278 35.1608 112.108 35.1381C111.936 35.1622 111.761 35.1458 111.596 35.09C111.432 35.0342 111.282 34.9407 111.16 34.8168C111.037 34.6928 110.945 34.5419 110.89 34.3758C110.836 34.2098 110.82 34.0333 110.845 33.8601V18.7495C110.866 18.4283 111.007 18.1271 111.24 17.907C111.473 17.687 111.78 17.5645 112.1 17.5645C112.419 17.5645 112.726 17.687 112.96 17.907C113.193 18.1271 113.334 18.4283 113.355 18.7495C114.631 17.7814 116.231 17.3501 117.817 17.5464C119.338 17.7264 120.741 18.4607 121.762 19.611C122.784 20.7613 123.352 22.2482 123.361 23.7917L123.356 33.8601Z" fill="white"/>
<path d="M137.356 33.2637C137.356 35.1512 135.117 35.7073 133.61 35.7073C132.282 35.7045 131.009 35.1728 130.069 34.2283C129.129 33.2838 128.597 32.0029 128.59 30.665V20.5859H126.102C125.932 20.6107 125.759 20.5953 125.596 20.5411C125.433 20.4869 125.284 20.3953 125.163 20.2735C125.041 20.1516 124.948 20.003 124.893 19.8391C124.838 19.6753 124.821 19.5008 124.845 19.3294C124.82 19.1577 124.836 18.9827 124.891 18.8184C124.946 18.654 125.038 18.5049 125.16 18.3828C125.282 18.2607 125.431 18.1691 125.595 18.1153C125.758 18.0615 125.932 18.0469 126.102 18.0728H128.59V11.7794C128.567 11.6061 128.584 11.4296 128.64 11.2641C128.696 11.0985 128.79 10.9484 128.913 10.8254C129.037 10.7025 129.187 10.6103 129.352 10.5559C129.517 10.5015 129.692 10.4865 129.864 10.5122C130.034 10.4886 130.207 10.5053 130.369 10.561C130.532 10.6166 130.679 10.7096 130.799 10.8326C130.92 10.9556 131.01 11.1052 131.063 11.2696C131.117 11.4339 131.131 11.6085 131.105 11.7794V18.0728H133.61C133.779 18.0471 133.953 18.0616 134.116 18.1151C134.279 18.1687 134.427 18.2598 134.549 18.3812C134.671 18.5027 134.764 18.6511 134.819 18.8148C134.874 18.9784 134.891 19.1528 134.867 19.324C134.89 19.4955 134.874 19.67 134.818 19.8338C134.763 19.9976 134.671 20.1463 134.549 20.2681C134.427 20.3899 134.279 20.4816 134.116 20.5358C133.953 20.59 133.78 20.6053 133.61 20.5806H131.105V30.665C131.107 31.335 131.371 31.9772 131.84 32.4519C132.309 32.9266 132.945 33.1953 133.61 33.1995C134.777 33.1995 135.43 31.959 136.363 31.959C137.027 31.9751 137.356 32.3921 137.356 33.2637Z" fill="white"/>
<path d="M143.294 11.9986C143.268 12.4867 143.058 12.9463 142.706 13.2827C142.354 13.619 141.887 13.8065 141.402 13.8065C140.917 13.8065 140.451 13.619 140.099 13.2827C139.747 12.9463 139.537 12.4867 139.511 11.9986C139.497 11.7398 139.536 11.4809 139.625 11.2377C139.714 10.9945 139.851 10.7721 140.028 10.5841C140.205 10.396 140.418 10.2462 140.655 10.1439C140.891 10.0416 141.145 9.98877 141.402 9.98877C141.66 9.98877 141.914 10.0416 142.15 10.1439C142.387 10.2462 142.6 10.396 142.777 10.5841C142.954 10.7721 143.091 10.9945 143.18 11.2377C143.269 11.4809 143.308 11.7398 143.294 11.9986ZM142.652 18.9016V34.0123C142.678 34.1843 142.665 34.3602 142.612 34.5259C142.559 34.6916 142.468 34.8425 142.347 34.9666C142.226 35.0907 142.077 35.1846 141.914 35.2408C141.751 35.297 141.576 35.3139 141.405 35.2902C141.234 35.3149 141.059 35.2993 140.895 35.2445C140.731 35.1897 140.581 35.0973 140.458 34.9745C140.335 34.8517 140.242 34.7019 140.187 34.5368C140.131 34.3717 140.114 34.1958 140.137 34.023V18.9016C140.115 18.7294 140.132 18.5543 140.188 18.3901C140.245 18.2258 140.338 18.077 140.461 17.9552C140.584 17.8334 140.733 17.742 140.897 17.6882C141.061 17.6344 141.235 17.6196 141.405 17.6451C141.575 17.6199 141.748 17.635 141.91 17.6892C142.073 17.7435 142.221 17.8353 142.342 17.9574C142.463 18.0795 142.554 18.2285 142.608 18.3925C142.662 18.5564 142.677 18.7308 142.652 18.9016Z" fill="white"/>
<path d="M161.142 20.9595C161.143 21.1294 161.108 21.2977 161.041 21.4533C160.973 21.609 160.874 21.7486 160.749 21.8632C159.858 22.7989 158.791 21.66 158.001 21.1413C156.992 20.4313 155.798 20.0387 154.568 20.0131C152.912 20.0215 151.326 20.6886 150.156 21.8692C148.985 23.0498 148.324 24.6484 148.318 26.3172C148.318 31.4985 153.952 34.1506 157.985 31.5145C158.802 30.9798 159.831 29.8783 160.738 30.7927C160.857 30.9088 160.951 31.0476 161.015 31.201C161.079 31.3543 161.113 31.5191 161.113 31.6856C161.113 31.8521 161.079 32.0169 161.015 32.1703C160.951 32.3236 160.857 32.4625 160.738 32.5786C159.978 33.4227 159.023 34.0654 157.958 34.45C156.358 35.121 154.597 35.2988 152.897 34.9609C151.197 34.623 149.635 33.7847 148.408 32.5518C147.578 31.7452 146.922 30.7758 146.48 29.7034C146.037 28.631 145.817 27.4785 145.834 26.3172C145.843 23.9804 146.768 21.7418 148.408 20.09C150.048 18.4381 152.27 17.507 154.589 17.5C156.764 17.5 159.327 18.3983 160.77 20.0826C160.996 20.3192 161.129 20.6313 161.142 20.9595Z" fill="white"/>
<path d="M176.323 28.9969C176.275 30.6364 175.596 32.1927 174.428 33.3355C173.261 34.4782 171.697 35.1175 170.07 35.1175C168.442 35.1175 166.879 34.4782 165.711 33.3355C164.544 32.1927 163.864 30.6364 163.817 28.9969V18.9018C163.817 18.5671 163.949 18.2461 164.184 18.0095C164.418 17.7728 164.737 17.6399 165.069 17.6399C165.401 17.6399 165.72 17.7728 165.954 18.0095C166.189 18.2461 166.321 18.5671 166.321 18.9018V28.9969C166.321 29.9995 166.716 30.9611 167.42 31.67C168.123 32.379 169.078 32.7773 170.072 32.7773C171.067 32.7773 172.021 32.379 172.725 31.67C173.428 30.9611 173.824 29.9995 173.824 28.9969V18.9018C173.8 18.7293 173.817 18.5537 173.873 18.3889C173.928 18.2242 174.022 18.0748 174.145 17.9528C174.268 17.8307 174.418 17.7393 174.582 17.6859C174.747 17.6326 174.921 17.6186 175.092 17.6452C175.26 17.6211 175.432 17.6369 175.594 17.6913C175.755 17.7456 175.902 17.8371 176.022 17.9584C176.143 18.0798 176.234 18.2277 176.288 18.3905C176.342 18.5533 176.357 18.7265 176.333 18.8964L176.323 28.9969Z" fill="white"/>
<path d="M203 34.0124C203 34.347 202.868 34.668 202.633 34.9047C202.398 35.1413 202.08 35.2743 201.748 35.2743C201.416 35.2743 201.097 35.1413 200.862 34.9047C200.628 34.668 200.496 34.347 200.496 34.0124V23.9439C200.496 22.9413 200.1 21.9798 199.397 21.2708C198.693 20.5619 197.739 20.1636 196.744 20.1636C195.75 20.1636 194.795 20.5619 194.092 21.2708C193.389 21.9798 192.993 22.9413 192.993 23.9439V34.0124C193.004 34.1839 192.98 34.3559 192.923 34.5178C192.865 34.6796 192.776 34.8279 192.659 34.9533C192.542 35.0788 192.401 35.1788 192.245 35.2472C192.088 35.3156 191.92 35.3508 191.749 35.3508C191.578 35.3508 191.41 35.3156 191.253 35.2472C191.097 35.1788 190.956 35.0788 190.839 34.9533C190.722 34.8279 190.633 34.6796 190.575 34.5178C190.518 34.3559 190.494 34.1839 190.505 34.0124V23.9439C190.524 23.4352 190.441 22.9278 190.261 22.4521C190.081 21.9765 189.807 21.5423 189.457 21.1756C189.106 20.8089 188.686 20.5172 188.221 20.3179C187.756 20.1187 187.256 20.016 186.751 20.016C186.246 20.016 185.746 20.1187 185.281 20.3179C184.816 20.5172 184.396 20.8089 184.045 21.1756C183.695 21.5423 183.421 21.9765 183.241 22.4521C183.061 22.9278 182.978 23.4352 182.997 23.9439V34.0124C183.008 34.1853 182.984 34.3588 182.926 34.522C182.868 34.6852 182.778 34.8346 182.66 34.9611C182.542 35.0876 182.4 35.1885 182.242 35.2574C182.085 35.3263 181.914 35.3619 181.742 35.3619C181.57 35.3619 181.4 35.3263 181.242 35.2574C181.084 35.1885 180.942 35.0876 180.825 34.9611C180.707 34.8346 180.617 34.6852 180.559 34.522C180.501 34.3588 180.476 34.1853 180.488 34.0124V18.9017C180.508 18.5805 180.649 18.2794 180.883 18.0593C181.116 17.8392 181.423 17.7167 181.742 17.7167C182.062 17.7167 182.369 17.8392 182.602 18.0593C182.835 18.2794 182.976 18.5805 182.997 18.9017C184.077 18.0686 185.404 17.626 186.764 17.6452C187.738 17.6169 188.704 17.8321 189.575 18.2716C190.446 18.711 191.196 19.361 191.757 20.1636C192.319 19.3646 193.068 18.7171 193.936 18.278C194.805 17.8388 195.768 17.6215 196.739 17.6452C198.396 17.648 199.984 18.3114 201.158 19.4906C202.331 20.6698 202.993 22.2689 203 23.9386V34.0124Z" fill="white"/>
<path d="M24.3112 49C37.7379 49 48.6224 38.031 48.6224 24.5C48.6224 10.969 37.7379 0 24.3112 0C10.8845 0 0 10.969 0 24.5C0 38.031 10.8845 49 24.3112 49Z" fill="white"/>
<path fill-rule="evenodd" clip-rule="evenodd" d="M1.40073 16.303C0.505399 18.8305 0.0320706 21.4902 0 24.1738H48.6171C48.581 21.491 48.1096 18.8323 47.2216 16.303H1.40073Z" fill="#26C238"/>
<path fill-rule="evenodd" clip-rule="evenodd" d="M48.6065 25.2325H0C0.0843937 27.9253 0.605964 30.5859 1.54399 33.1087H47.0784C48.016 30.5864 48.5324 27.925 48.6065 25.2325Z" fill="#26C238"/>
<path fill-rule="evenodd" clip-rule="evenodd" d="M46.8239 15.239C44.9973 10.7339 41.8809 6.87889 37.872 4.1654C33.8631 1.4519 29.1433 0.00280762 24.3141 0.00280762C19.4849 0.00280762 14.765 1.4519 10.7561 4.1654C6.74722 6.87889 3.63084 10.7339 1.8042 15.239H46.8239Z" fill="#26C238"/>
<path fill-rule="evenodd" clip-rule="evenodd" d="M1.96826 34.1675C3.8461 38.5706 6.96362 42.3223 10.9352 44.9585C14.9067 47.5947 19.558 48.9998 24.3136 48.9998C29.0693 48.9998 33.7206 47.5947 37.6921 44.9585C41.6637 42.3223 44.7812 38.5706 46.659 34.1675H1.96826Z" fill="#26C238"/>
<path d="M21.5628 18.8214C23.3445 18.8214 24.7888 17.3659 24.7888 15.5704C24.7888 13.775 23.3445 12.3195 21.5628 12.3195C19.7812 12.3195 18.3369 13.775 18.3369 15.5704C18.3369 17.3659 19.7812 18.8214 21.5628 18.8214Z" fill="#18181B"/>
<path d="M39.0189 18.8214C40.8005 18.8214 42.2448 17.3659 42.2448 15.5704C42.2448 13.775 40.8005 12.3195 39.0189 12.3195C37.2373 12.3195 35.793 13.775 35.793 15.5704C35.793 17.3659 37.2373 18.8214 39.0189 18.8214Z" fill="white"/>
<path d="M29.9828 27.7509C31.7644 27.7509 33.2087 26.2954 33.2087 24.4999C33.2087 22.7044 31.7644 21.2489 29.9828 21.2489C28.2011 21.2489 26.7568 22.7044 26.7568 24.4999C26.7568 26.2954 28.2011 27.7509 29.9828 27.7509Z" fill="white"/>
<path d="M39.0189 27.7509C40.8005 27.7509 42.2448 26.2954 42.2448 24.4999C42.2448 22.7044 40.8005 21.2489 39.0189 21.2489C37.2373 21.2489 35.793 22.7044 35.793 24.4999C35.793 26.2954 37.2373 27.7509 39.0189 27.7509Z" fill="#18181B"/>
<path d="M21.5628 36.6858C23.3445 36.6858 24.7888 35.2303 24.7888 33.4348C24.7888 31.6394 23.3445 30.1838 21.5628 30.1838C19.7812 30.1838 18.3369 31.6394 18.3369 33.4348C18.3369 35.2303 19.7812 36.6858 21.5628 36.6858Z" fill="#18181B"/>
<path d="M30.0594 36.6858C31.8411 36.6858 33.2854 35.2303 33.2854 33.4348C33.2854 31.6394 31.8411 30.1838 30.0594 30.1838C28.2778 30.1838 26.8335 31.6394 26.8335 33.4348C26.8335 35.2303 28.2778 36.6858 30.0594 36.6858Z" fill="white"/>
</svg>
